<svg width="49" height="48" viewBox="0 0 49 48" fill="none" xmlns="http://www.w3.org/2000/svg">
<path d="M45.4 24.9H39.9V2.5C39.9 1.1 38.8 0 37.4 0H2.5C1.1 0 0 1.1 0 2.5V27.9C0 29.3 1.1 30.4 2.5 30.4H3.9V36.4C3.9 36.8 4.1 37.1 4.4 37.3C4.5 37.4 4.7 37.4 4.9 37.4C5.1 37.4 5.3 37.3 5.5 37.2L15.1 30.4H16.1V40.3C16.1 41.8 17.3 42.9 18.8 42.9H34.8L40.7 47.7C40.9 47.8 41.1 47.9 41.3 47.9C41.4 47.9 41.6 47.9 41.7 47.8C42 47.6 42.3 47.3 42.3 46.9V42.8H45.5C47 42.8 48.1 41.6 48.1 40.2V27.5C48 26.1 46.8 24.9 45.4 24.9ZM14.7 28.4C14.5 28.4 14.3 28.5 14.1 28.6L5.9 34.4V29.4C5.9 28.8 5.5 28.4 4.9 28.4H2.5C2.2 28.4 2 28.2 2 27.9V2.5C2 2.2 2.2 2 2.5 2H37.4C37.7 2 37.9 2.2 37.9 2.5V27.9C37.9 28.2 37.7 28.4 37.4 28.4H14.7ZM46 40.3C46 40.7 45.7 40.9 45.4 40.9H41.2C40.6 40.9 40.2 41.3 40.2 41.9V44.9L35.7 41.2C35.5 41.1 35.3 41 35.1 41H18.7C18.3 41 18 40.7 18 40.4V30.5H37.4C38.8 30.5 39.9 29.4 39.9 28V27H45.4C45.8 27 46 27.3 46 27.6V40.3Z" fill="#822C41"/>
<path d="M30.6 8.59998H9.20001C8.60001 8.59998 8.20001 8.99998 8.20001 9.59998C8.20001 10.2 8.60001 10.6 9.20001 10.6H30.6C31.2 10.6 31.6 10.2 31.6 9.59998C31.6 9.09998 31.2 8.59998 30.6 8.59998Z" fill="#822C41"/>
<path d="M30.6 14.2H9.20001C8.60001 14.2 8.20001 14.6 8.20001 15.2C8.20001 15.8 8.60001 16.2 9.20001 16.2H30.6C31.2 16.2 31.6 15.8 31.6 15.2C31.6 14.6 31.2 14.2 30.6 14.2Z" fill="#822C41"/>
<path d="M20.3 19.7H9.29999C8.69999 19.7 8.29999 20.1 8.29999 20.7C8.29999 21.3 8.69999 21.7 9.29999 21.7H20.3C20.9 21.7 21.3 21.3 21.3 20.7C21.3 20.2 20.8 19.7 20.3 19.7Z" fill="#822C41"/>
<path d="M26.5 19.7H23.8C23.2 19.7 22.8 20.1 22.8 20.7C22.8 21.3 23.2 21.7 23.8 21.7H26.5C27.1 21.7 27.5 21.3 27.5 20.7C27.5 20.2 27 19.7 26.5 19.7Z" fill="#822C41"/>
</svg>
