<svg width="154" height="123" viewBox="0 0 154 123" fill="none" xmlns="http://www.w3.org/2000/svg">
<path d="M100 24L104 17" stroke="#691C33" stroke-width="3" stroke-linecap="round"/>
<path d="M84.4529 29.5284L77 26.4536" stroke="#691C33" stroke-width="3" stroke-linecap="round"/>
<path d="M90 23L86 16" stroke="#691C33" stroke-width="3" stroke-linecap="round"/>
<path d="M96 45H12C6.47715 45 2 49.4772 2 55V70C2 75.5228 6.47715 80 12 80H142C147.523 80 152 75.5228 152 70V55C152 49.4772 147.523 45 142 45H129" stroke="#691C33" stroke-width="3"/>
<rect x="3.5" y="89.5" width="147" height="32" rx="8.5" stroke="#691C33" stroke-width="3"/>
<path d="M92 37H12C6.47715 37 2 32.5228 2 27V12C2 6.47715 6.47715 2 12 2H142C147.523 2 152 6.47715 152 12V27C152 32.5228 147.523 37 142 37H126.5" stroke="#691C33" stroke-width="3"/>
<path d="M119.928 32.9944C118.994 33.4216 118.253 34.104 117.751 34.9189C116.32 33.4348 114.048 32.934 112.068 33.8394C111.134 34.2667 110.393 34.9491 109.891 35.7639C108.459 34.2799 106.188 33.779 104.208 34.6845C103.38 35.0628 102.704 35.6412 102.214 36.3356L98.8154 28.9031C97.6687 26.3953 94.6968 25.2883 92.189 26.435C89.6812 27.5816 88.5742 30.5535 89.7208 33.0613L101.874 59.6422L94.1946 59.3737C93.0381 59.3334 91.8698 59.5679 90.8172 60.0492C88.4208 61.1449 87.3654 63.9833 88.4663 66.3911C88.9975 67.5529 89.9479 68.4351 91.144 68.8805L112.567 76.86C117.408 78.6654 122.668 78.4736 127.369 76.3239C135.518 72.5981 139.117 62.9369 135.391 54.7883L126.555 35.4625C125.408 32.9547 122.436 31.8477 119.928 32.9944ZM133.117 55.8278C136.27 62.7237 133.223 70.8983 126.327 74.0513C122.233 75.9235 117.657 76.0885 113.441 74.5143L92.0155 66.5358C91.4467 66.3258 90.9926 65.904 90.7338 65.3378C90.2119 64.1965 90.7154 62.8448 91.8568 62.3229C92.5593 62.0017 93.3355 61.8474 94.1087 61.8733L103.81 62.2099C104.242 62.2239 104.654 62.0134 104.892 61.6547C105.131 61.2951 105.169 60.8354 104.989 60.442L91.9945 32.0218C91.4217 30.769 91.9735 29.2825 93.2286 28.7087C94.4836 28.1348 95.9689 28.69 96.5417 29.9427L106.417 51.5421C106.704 52.1697 107.446 52.4461 108.074 52.1592C108.702 51.8723 108.978 51.1301 108.691 50.5026L104.013 40.2713C103.44 39.0185 103.992 37.532 105.247 36.9582C106.502 36.3843 107.988 36.9395 108.56 38.1922L113.238 48.4235C113.525 49.051 114.267 49.3275 114.895 49.0406C115.522 48.7536 115.799 48.0114 115.512 47.3839L111.874 39.4262C111.301 38.1734 111.853 36.6869 113.108 36.1131C114.363 35.5393 115.848 36.0945 116.421 37.3472L120.059 45.3049C120.346 45.9324 121.088 46.2088 121.716 45.9219C122.343 45.635 122.62 44.8928 122.333 44.2653L119.734 38.5812C119.161 37.3284 119.713 35.8419 120.968 35.2681C122.223 34.6942 123.708 35.2494 124.281 36.5021L133.117 55.8278Z" fill="#691C33"/>
</svg>
