<svg width="48" height="48" viewBox="0 0 48 48" fill="none" xmlns="http://www.w3.org/2000/svg">
<path d="M30.0723 24.9756C30.1826 25.0147 30.2959 25.0332 30.4063 25.0332C30.8184 25.0332 31.2041 24.7769 31.3486 24.3663C32.1973 21.9727 34.834 20.7149 37.2276 21.5611C37.751 21.7452 38.3203 21.4722 38.5039 20.9517C38.6885 20.4312 38.416 19.8599 37.8955 19.6753C36.2295 19.0865 34.4375 19.1822 32.8457 19.941C31.2539 20.7007 30.0528 22.0357 29.4639 23.6993C29.2793 24.2198 29.5518 24.7911 30.0723 24.9756Z" fill="#722439"/>
<path d="M24.8945 15.4458C26.5332 15.4458 27.8672 14.1123 27.8672 12.4731C27.8672 10.834 26.5332 9.5 24.8945 9.5C23.2549 9.5 21.9209 10.834 21.9209 12.4731C21.9209 14.1123 23.2549 15.4458 24.8945 15.4458ZM24.8945 11.5C25.4307 11.5 25.8672 11.9365 25.8672 12.4731C25.8672 13.0093 25.4307 13.4458 24.8945 13.4458C24.3574 13.4458 23.9209 13.0093 23.9209 12.4731C23.9209 11.9365 24.3574 11.5 24.8945 11.5Z" fill="#722439"/>
<path d="M37.5391 15.4458C39.1777 15.4458 40.5117 14.1123 40.5117 12.4731C40.5117 10.834 39.1777 9.5 37.5391 9.5C35.9004 9.5 34.5664 10.834 34.5664 12.4731C34.5664 14.1123 35.9004 15.4458 37.5391 15.4458ZM37.5391 11.5C38.0752 11.5 38.5117 11.9365 38.5117 12.4731C38.5117 13.0093 38.0752 13.4458 37.5391 13.4458C37.0029 13.4458 36.5664 13.0093 36.5664 12.4731C36.5664 11.9365 37.0029 11.5 37.5391 11.5Z" fill="#722439"/>
<path d="M15.7969 48C24.5078 48 31.5947 40.9136 31.5947 32.2026C31.5947 31.9938 31.5689 31.7866 31.5606 31.5773C40.1108 31.392 47.0137 24.3922 47.0137 15.7974C47.0137 7.08643 39.9268 0 31.2168 0C22.5059 0 15.4189 7.08643 15.4189 15.7974C15.4189 16.0085 15.4424 16.2137 15.4506 16.4228C6.90149 16.6094 0 23.6086 0 32.2026C2e-07 40.9136 7.08691 48 15.7969 48ZM31.2168 2C38.8242 2 45.0137 8.18945 45.0137 15.7974C45.0137 23.4053 38.8242 29.5947 31.2168 29.5947C23.6084 29.5947 17.4189 23.4053 17.4189 15.7974C17.4189 8.18945 23.6084 2 31.2168 2ZM23.0095 29.2698C22.8585 29.6113 22.5175 29.8511 22.1201 29.8511C21.584 29.8511 21.1475 29.4146 21.1475 28.8784C21.1475 28.6108 21.2668 28.3682 21.4485 28.1886C21.9449 28.5807 22.4677 28.9385 23.0095 29.2698ZM15.6567 18.4301C16.2056 21.6811 17.7381 24.5992 19.9539 26.8555C19.4534 27.3955 19.1475 28.1127 19.1475 28.8784C19.1475 30.5176 20.4814 31.8511 22.1201 31.8511C23.2811 31.8511 24.2781 31.176 24.7676 30.2038C26.2583 30.8738 27.8654 31.3282 29.5566 31.5057C29.5684 31.7387 29.5947 31.9697 29.5947 32.2026C29.5947 39.8105 23.4053 46 15.7969 46C8.18945 46 2 39.8105 2 32.2026C2 24.6433 8.15253 18.5272 15.6567 18.4301Z" fill="#722439"/>
<path d="M9.4707 31.8511C11.1094 31.8511 12.4434 30.5176 12.4434 28.8784C12.4434 27.2393 11.1094 25.9053 9.4707 25.9053C7.83203 25.9053 6.49805 27.2393 6.49805 28.8784C6.49805 30.5176 7.83203 31.8511 9.4707 31.8511ZM9.4707 27.9053C10.0068 27.9053 10.4434 28.3418 10.4434 28.8784C10.4434 29.4146 10.0068 29.8511 9.4707 29.8511C8.93457 29.8511 8.49805 29.4146 8.49805 28.8784C8.49805 28.3418 8.93457 27.9053 9.4707 27.9053Z" fill="#722439"/>
<path d="M9.93262 37.1309C9.54199 37.5215 9.54199 38.1543 9.93262 38.5449C11.5498 40.1616 13.6729 40.9702 15.7969 40.9702C17.9209 40.9702 20.0439 40.1616 21.6611 38.5449C22.0518 38.1543 22.0518 37.5215 21.6611 37.1309C21.2705 36.7402 20.6377 36.7402 20.2471 37.1309C17.7939 39.585 13.7998 39.585 11.3467 37.1309C10.9561 36.7402 10.3232 36.7402 9.93262 37.1309Z" fill="#722439"/>
</svg>
