<svg width="37" height="48" viewBox="0 0 37 48" fill="none" xmlns="http://www.w3.org/2000/svg">
<path d="M30.1 42H27.9L25.5 35.6C32.2 32.8 37 26.2 37 18.5C37 8.3 28.7 0 18.5 0C8.3 0 0 8.3 0 18.5C0 25.7 4.2 32 10.3 35L7.7 42H5.5C1.5 42 1.6 48 5.5 48H30.1C34 48 34.1 42 30.1 42ZM2 18.5C2 9.4 9.4 2 18.5 2C27.6 2 35 9.4 35 18.5C35 27.6 27.6 35 18.5 35C9.4 35 2 27.6 2 18.5ZM12.1 35.8C14.1 36.5 16.2 37 18.5 37C20.3 37 22 36.7 23.7 36.3L25.8 42H9.8L12.1 35.8ZM5.5 44C6.6 44 -0.400002 44 30.1 44C31.5 44 31.4 46 30.1 46H5.5C4.2 46 4.2 44 5.5 44Z" fill="#722439"/>
<path d="M24.2 18.5C24.2 15.3 21.6 12.8 18.5 12.8C15.4 12.8 12.8 15.4 12.8 18.5C12.8 21.7 15.4 24.2 18.5 24.2C21.6 24.2 24.2 21.7 24.2 18.5ZM14.8 18.5C14.8 16.4 16.5 14.8 18.5 14.8C20.5 14.8 22.2 16.5 22.2 18.5C22.2 20.5 20.5 22.2 18.5 22.2C16.5 22.2 14.8 20.6 14.8 18.5Z" fill="#722439"/>
<path d="M28.1 18.5C28.1 13.2 23.8 8.90002 18.5 8.90002C13.2 8.90002 8.89999 13.2 8.89999 18.5C8.89999 23.8 13.2 28.1 18.5 28.1C23.8 28.1 28.1 23.8 28.1 18.5ZM10.9 18.5C10.9 14.3 14.3 10.9 18.5 10.9C22.7 10.9 26.1 14.3 26.1 18.5C26.1 22.7 22.7 26.1 18.5 26.1C14.3 26.1 10.9 22.7 10.9 18.5Z" fill="#722439"/>
<path d="M18.5 5.5C19 5.5 19.5 5.1 19.5 4.5C19.5 3.9 19.1 3.5 18.5 3.5C10.2 3.5 3.5 10.2 3.5 18.5C3.5 19 3.9 19.5 4.5 19.5C5.1 19.5 5.5 19.1 5.5 18.5C5.5 11.3 11.3 5.5 18.5 5.5Z" fill="#722439"/>
</svg>
