<svg width="115" height="150" viewBox="0 0 115 150" fill="none" xmlns="http://www.w3.org/2000/svg">
<path d="M53 136.5H62.5" stroke="#691C33" stroke-width="2.5"/>
<path d="M39.9556 70.9556V104.789C39.9556 107.814 37.5031 110.267 34.4778 110.267V110.267C31.4525 110.267 29 107.814 29 104.789V71.9223C29 70.3112 29 65.8645 29 60.9667C29 56.0689 33.2963 53.126 35.4444 52.2667C38.237 51.1927 44.4667 48.9156 47.0444 48.4001C48.1863 48.1717 48.9489 47.1761 49.444 45.9512" stroke="#691C33" stroke-width="2.5"/>
<path d="M76.0444 71.2778V105.111C76.0444 108.136 78.4969 110.589 81.5222 110.589V110.589C84.5475 110.589 87 108.136 87 105.111V72.2445C87 70.6334 87 66.1867 87 61.2889C87 56.3912 82.7037 53.4482 80.5556 52.5889C77.763 51.5149 71.5333 49.2378 68.9556 48.7223C67.715 48.4742 66.9222 47.3206 66.4336 45.9512" stroke="#691C33" stroke-width="2.5"/>
<path d="M75.4 106.078V89.3223H39.9556V106.078M53.1667 106.078H62.1889" stroke="#691C33" stroke-width="2.5"/>
<path d="M52.8833 103.822V139.628H40.5611V103.822C40.5611 100.42 43.3195 97.6612 46.7222 97.6612C50.1249 97.6612 52.8833 100.42 52.8833 103.822Z" stroke="#691C33" stroke-width="2.5"/>
<path d="M74.7945 103.822V139.628H62.4722V103.822C62.4722 100.42 65.2307 97.6612 68.6333 97.6612C72.036 97.6612 74.7945 100.42 74.7945 103.822Z" stroke="#691C33" stroke-width="2.5"/>
<path d="M64 140.839H73.2667C75.89 140.839 78.0167 142.966 78.0167 145.589V148.65H59.25V145.589C59.25 142.966 61.3766 140.839 64 140.839Z" stroke="#691C33" stroke-width="2.5"/>
<path d="M42.0889 140.839H51.3556C53.9789 140.839 56.1056 142.966 56.1056 145.589V148.65H37.3389V145.589C37.3389 142.966 39.4655 140.839 42.0889 140.839Z" stroke="#691C33" stroke-width="2.5"/>
<path d="M75.1034 23.8837C75.0039 21.2551 73.8954 18.7965 71.9821 16.9609C70.0746 15.1308 67.5803 14.1239 64.9561 14.1239C64.9495 14.1239 64.9425 14.1239 64.9359 14.1239C63.1717 14.1271 61.4341 14.5905 59.911 15.4644C58.7215 16.1472 57.2437 16.1472 56.0542 15.4643C54.5312 14.5905 52.7933 14.1271 51.0284 14.1239C51.0217 14.1239 51.0149 14.1239 51.0081 14.1239C48.384 14.1239 45.8896 15.1309 43.9825 16.9609C42.0694 18.7964 40.9612 21.255 40.8619 23.8835C40.6682 28.983 44.3 33.4138 49.2448 34.2802C49.2443 34.3123 49.2427 34.3442 49.2427 34.3763V35.1614C49.2427 38.3112 51.8053 40.8738 54.9551 40.8738H61.0102C64.1601 40.8738 66.7227 38.3112 66.7227 35.1614V34.3763C66.7227 34.3442 66.7211 34.3123 66.7206 34.2802C71.6653 33.4138 75.2971 28.9829 75.1034 23.8837V23.8837ZM50.737 35.1614V34.3763C50.737 32.559 51.8798 30.987 53.5392 30.4014C53.948 31.5552 55.0498 32.3841 56.342 32.3841H57.2354V33.3216C57.2354 34.539 56.5763 35.6661 55.5154 36.2631L52.0486 38.2138C51.2415 37.4451 50.737 36.3614 50.737 35.1614V35.1614ZM56.342 30.8897C55.5267 30.8897 54.8634 30.2264 54.8634 29.4111C54.8634 28.5958 55.5267 27.9325 56.342 27.9325H59.6233C60.4386 27.9325 61.1019 28.5958 61.1019 29.4111C61.1019 30.2264 60.4386 30.8897 59.6233 30.8897H56.342ZM54.955 39.3794C54.4404 39.3794 53.9472 39.2865 53.4908 39.117L56.2482 37.5655C56.9683 37.1603 57.5578 36.5846 57.9827 35.9071C58.4075 36.5847 58.997 37.1604 59.717 37.5655L62.4744 39.117C62.018 39.2865 61.5248 39.3794 61.0101 39.3794H54.955ZM65.2282 35.1614C65.2282 36.3613 64.7236 37.4451 63.9165 38.2139L60.4496 36.2631C59.3888 35.6662 58.7296 34.539 58.7296 33.3216V32.3841H59.6232C60.9154 32.3841 62.017 31.5551 62.4259 30.4014C64.0852 30.987 65.2281 32.559 65.2281 34.3763V35.1614H65.2282ZM66.5024 32.7987C65.9647 30.9113 64.4828 29.4095 62.5467 28.874C62.2931 27.4903 61.0792 26.4381 59.6233 26.4381H56.342C54.8861 26.4381 53.6721 27.4903 53.4185 28.874C51.4824 29.4095 50.0005 30.9112 49.4629 32.7987C45.2675 32.0428 42.1904 28.276 42.3551 23.9401C42.4398 21.7007 43.3851 19.605 45.0171 18.0392C46.6487 16.4736 48.7838 15.6166 51.0256 15.6183C52.531 15.6209 54.0127 16.016 55.3103 16.7604C56.9586 17.7067 59.0064 17.7066 60.6547 16.7605C61.9525 16.0159 63.4338 15.6209 64.9387 15.6183H64.9559C67.1926 15.6183 69.3199 16.4776 70.9477 18.0392C72.5799 19.6052 73.5254 21.7008 73.6102 23.9402C73.7748 28.276 70.6977 32.0427 66.5024 32.7987V32.7987Z" fill="#691C33"/>
<path d="M49.8483 21.5631C48.6001 21.5631 47.5845 23.0809 47.5845 24.9465C47.5845 26.8122 48.6001 28.3298 49.8483 28.3298C51.0966 28.3298 52.1123 26.8121 52.1123 24.9465C52.1123 23.081 51.0966 21.5631 49.8483 21.5631Z" fill="#691C33"/>
<path d="M66.1167 21.5631C64.8685 21.5631 63.8529 23.0809 63.8529 24.9465C63.8529 26.8122 64.8684 28.3298 66.1167 28.3298C67.3651 28.3298 68.3807 26.8121 68.3807 24.9465C68.3807 23.081 67.3651 21.5631 66.1167 21.5631Z" fill="#691C33"/>
<path d="M75.5888 6.51227C73.9598 6.51227 72.6346 7.83756 72.6346 9.4665C72.6346 9.87914 72.969 10.2137 73.3818 10.2137C73.7945 10.2137 74.1289 9.87914 74.1289 9.4665C74.1289 8.66154 74.7839 8.00662 75.5888 8.00662C76.3938 8.00662 77.0486 8.66154 77.0486 9.4665C77.0486 9.87914 77.383 10.2137 77.7958 10.2137C78.2085 10.2137 78.543 9.87914 78.543 9.4665C78.543 7.83756 77.2177 6.51227 75.5888 6.51227V6.51227Z" fill="#691C33"/>
<path d="M38.1679 10.2137C38.5805 10.2137 38.915 9.87914 38.915 9.4665C38.915 8.66154 39.57 8.00662 40.3749 8.00662C41.1799 8.00662 41.8348 8.66154 41.8348 9.4665C41.8348 9.87914 42.1693 10.2137 42.582 10.2137C42.9946 10.2137 43.3292 9.87914 43.3292 9.4665C43.3292 7.83756 42.0039 6.51227 40.3749 6.51227C38.746 6.51227 37.4207 7.83756 37.4207 9.4665C37.4207 9.87914 37.7551 10.2137 38.1679 10.2137Z" fill="#691C33"/>
<path d="M79.6257 12.7212C80.8298 11.8266 81.6117 10.3942 81.6117 8.78215C81.6117 5.462 78.9106 2.76091 75.5904 2.76091C73.9435 2.76091 72.4494 3.4261 71.3612 4.50123C67.3454 2.02011 62.7342 0.71106 57.9826 0.71106C55.3668 0.71106 52.7886 1.10577 50.32 1.88432C49.9264 2.00846 49.708 2.42807 49.8321 2.82168C49.9562 3.21519 50.3757 3.43347 50.7695 3.30954C53.0926 2.57691 55.5194 2.20541 57.9826 2.20541C62.3983 2.20541 66.685 3.40587 70.43 5.68297C69.8839 6.58894 69.569 7.64943 69.569 8.78215V12.9396C69.569 13.3523 69.9034 13.6868 70.3162 13.6868H76.7069C77.2645 13.6868 77.8001 13.592 78.2999 13.4198C80.7161 17.2488 81.9908 21.6589 81.9908 26.2147C81.9908 30.1813 81.0284 34.029 79.1884 37.4818V31.9051C79.1884 31.5349 78.9174 31.2205 78.5512 31.1661C78.185 31.112 77.8342 31.3336 77.7265 31.6878C77.7127 31.7328 76.3282 36.2433 73.8627 40.6924C73.6626 41.0534 73.793 41.5081 74.154 41.7081C74.2687 41.7717 74.393 41.8018 74.5155 41.8018C74.7784 41.8018 75.0332 41.6629 75.1696 41.4167C76.2078 39.5435 77.0531 37.6819 77.6942 36.1217V40.156C77.6942 40.4837 77.9078 40.7731 78.2209 40.8699C78.5339 40.9664 78.8735 40.8478 79.0583 40.5773C81.9544 36.3364 83.4852 31.3699 83.4852 26.2147C83.4852 21.4144 82.1525 16.7663 79.6257 12.7212V12.7212ZM71.0633 12.1926V8.78215C71.0633 6.28599 73.0942 4.25526 75.5903 4.25526C78.0865 4.25526 80.1172 6.28599 80.1172 8.78215C80.1172 10.6626 78.5874 12.1925 76.7069 12.1925H71.0633V12.1926Z" fill="#691C33"/>
<path d="M73.5165 42.7698C73.1719 42.5428 72.7084 42.6382 72.4814 42.9827C71.2668 44.8266 70.0166 46.2876 68.7501 47.3452L69.348 42.4807C69.3955 42.0943 69.1382 41.737 68.757 41.6585C68.3763 41.5804 67.9978 41.8079 67.8887 42.1816C67.8835 42.1994 67.3502 43.9877 65.8449 45.8653C63.8711 48.327 61.2264 49.791 57.9825 50.2178C54.7385 49.791 52.0938 48.327 50.1201 45.8653C48.6148 43.9878 48.0815 42.1994 48.0767 42.1831C47.9689 41.8084 47.5909 41.5795 47.2093 41.6576C46.8274 41.7355 46.5694 42.0939 46.617 42.4809L47.215 47.3458C41.6416 42.6947 38.2745 31.8058 38.2386 31.6879C38.1307 31.3337 37.7798 31.1113 37.4138 31.1664C37.0477 31.2209 36.7766 31.5352 36.7766 31.9053V37.4821C34.9368 34.029 33.9743 30.1813 33.9743 26.2146C33.9743 21.6585 35.2494 17.2486 37.666 13.4201C38.1657 13.5922 38.701 13.6869 39.2583 13.6869H45.649C46.0616 13.6869 46.3962 13.3524 46.3962 12.9397V8.78214C46.3962 7.64952 46.0814 6.58923 45.5354 5.68336C46.4219 5.14449 47.3445 4.66132 48.2882 4.24479C48.6658 4.07812 48.8367 3.63699 48.6701 3.25952C48.5034 2.88195 48.0622 2.71119 47.6848 2.87766C46.6267 3.3448 45.5934 3.89013 44.6043 4.50112C43.5161 3.42599 42.022 2.7608 40.375 2.7608C37.0549 2.7608 34.3537 5.46189 34.3537 8.78204C34.3537 10.3942 35.1358 11.8269 36.3403 12.7215C33.8128 16.7662 32.48 21.4141 32.48 26.2146C32.48 31.3699 34.0108 36.3364 36.9069 40.5773C37.0918 40.8479 37.4317 40.9665 37.7445 40.8698C38.0576 40.7731 38.2712 40.4837 38.2712 40.1559V36.1189C38.6604 37.066 39.1252 38.1251 39.6629 39.232C42.1471 44.345 44.8773 47.8285 47.7776 49.5859C48.0223 49.734 48.3302 49.7296 48.5706 49.5742C48.8109 49.4188 48.9413 49.1398 48.9063 48.8558L48.5964 46.3341C48.6973 46.4712 48.8028 46.6095 48.9131 46.7483C50.458 48.6941 53.2695 51.1348 57.8899 51.7127C57.9207 51.7166 57.9517 51.7184 57.9827 51.7184C58.0137 51.7184 58.0447 51.7165 58.0754 51.7127C62.6959 51.1348 65.5073 48.6942 67.0522 46.7483C67.1625 46.6095 67.268 46.4712 67.3689 46.334L67.059 48.8558C67.0241 49.1398 67.1545 49.4187 67.3947 49.5742C67.6349 49.7298 67.9429 49.7342 68.1876 49.586C70.1016 48.427 71.9661 46.4819 73.7296 43.8049C73.9564 43.4601 73.8611 42.9967 73.5165 42.7698V42.7698ZM40.3748 4.25525C42.871 4.25525 44.9017 6.28598 44.9017 8.78214V12.1925H39.2583C37.3778 12.1925 35.848 10.6626 35.848 8.78214C35.8479 6.28598 37.8787 4.25525 40.3748 4.25525Z" fill="#691C33"/>
<path d="M23.1296 96.8862C19.381 97.5109 16.1204 97.3719 13.3565 96.6736M13.3565 96.6736C-4.22604 92.2316 -1.71046 65.1606 23.1296 68.1414C23.1296 68.1414 22.6697 41.9262 23.1296 33.6477C23.5003 26.9754 29.1243 23.3405 33.5 21.7799M13.3565 96.6736V99.1857V125.631C13.7397 129.272 16.2309 136.554 23.1296 136.554C25.248 136.554 31.3595 136.554 39.5 136.554" stroke="#691C33" stroke-width="2.5" stroke-linecap="round" stroke-linejoin="round"/>
<rect x="28.25" y="137.25" width="7.5" height="9.5" rx="1.75" stroke="#691C33" stroke-width="2.5"/>
<path d="M92.1167 97.461C95.8653 98.0857 99.1259 97.9467 101.89 97.2484M101.89 97.2484C119.472 92.8064 116.957 65.7354 92.1167 68.7162C92.1167 68.7162 92.5766 42.501 92.1167 34.2225C91.767 27.9278 86.7417 24.3365 82.5 22.6398M101.89 97.2484V99.7606V126.206C101.507 129.847 99.0155 137.129 92.1167 137.129C88.7701 137.129 91.0348 137.129 75.5 137.129" stroke="#691C33" stroke-width="2.5" stroke-linecap="round" stroke-linejoin="round"/>
<rect x="-1.25" y="1.25" width="7.5" height="8.5" rx="1.75" transform="matrix(-1 0 0 1 86.5 137)" stroke="#691C33" stroke-width="2.5"/>
<path d="M29.5 106H28V137H40M86 106H87V137H75.5M53.5 137H62" stroke="#691C33" stroke-width="2.5"/>
<circle cx="17" cy="83" r="2.75" stroke="#691C33" stroke-width="2.5"/>
<circle cx="98" cy="84" r="2.75" stroke="#691C33" stroke-width="2.5"/>
</svg>
