<svg width="64" height="48" viewBox="0 0 64 48" fill="none" xmlns="http://www.w3.org/2000/svg">
<path d="M12.649 17.043H1.06518C0.466017 17.043 0 17.509 0 18.1081V29.692C0 30.2912 0.466017 30.7572 1.06518 30.7572H12.649C13.2482 30.7572 13.7142 30.2912 13.7142 29.692V18.1081C13.7142 17.509 13.2482 17.043 12.649 17.043ZM11.5838 28.6268H2.13036V19.1733H11.5838V28.6268Z" fill="#722439"/>
<path d="M5.39252 26.1635C5.59224 26.3632 5.85854 26.4964 6.19141 26.4964C6.4577 26.4964 6.79057 26.3632 6.99029 26.1635L9.78639 23.1677C10.1858 22.7682 10.1858 22.0359 9.71982 21.6365C9.32037 21.237 8.58806 21.237 8.18862 21.703L6.19141 23.9L5.45909 23.1677C5.05965 22.7682 4.39391 22.7016 3.9279 23.1011C3.52845 23.5005 3.46188 24.1663 3.86132 24.6323L5.39252 26.1635Z" fill="#722439"/>
<path d="M62.1799 17.043H18.2412C17.642 17.043 17.176 17.509 17.176 18.1081V29.692C17.176 30.2912 17.642 30.7572 18.2412 30.7572H62.1799C62.7791 30.7572 63.2451 30.2912 63.2451 29.692V18.1081C63.2451 17.509 62.7791 17.043 62.1799 17.043ZM61.1147 28.6268H19.3064V19.1733H61.1147V28.6268Z" fill="#722439"/>
<path d="M12.649 0H1.06518C0.466017 0 0 0.466016 0 1.06518V12.649C0 13.2482 0.466017 13.7142 1.06518 13.7142H12.649C13.2482 13.7142 13.7142 13.2482 13.7142 12.649V1.06518C13.7142 0.466016 13.2482 0 12.649 0ZM11.5838 11.5838H2.13036V2.13036H11.5838V11.5838Z" fill="#722439"/>
<path d="M18.2412 13.7142H39.1454C39.7445 13.7142 40.2106 13.2482 40.2106 12.649V1.06518C40.2106 0.466016 39.7445 0 39.1454 0H18.2412C17.642 0 17.176 0.466016 17.176 1.06518V12.649C17.176 13.2482 17.642 13.7142 18.2412 13.7142ZM19.3064 2.13036H38.0802V11.5838H19.3064V2.13036Z" fill="#722439"/>
<path d="M12.649 34.0857H1.06518C0.466017 34.0857 0 34.5517 0 35.1509V46.7347C0 47.3339 0.466017 47.7999 1.06518 47.7999H12.649C13.2482 47.7999 13.7142 47.3339 13.7142 46.7347V35.1509C13.7142 34.5517 13.2482 34.0857 12.649 34.0857ZM11.5838 45.6695H2.13036V36.2161H11.5838V45.6695Z" fill="#722439"/>
<path d="M53.1924 34.0857H18.2412C17.642 34.0857 17.176 34.5517 17.176 35.1509V46.7347C17.176 47.3339 17.642 47.7999 18.2412 47.7999H53.1924C53.7916 47.7999 54.2576 47.3339 54.2576 46.7347V35.1509C54.2576 34.5517 53.7916 34.0857 53.1924 34.0857ZM52.1273 45.6695H19.3064V36.2161H52.1273V45.6695Z" fill="#722439"/>
</svg>
