<svg width="68" height="48" viewBox="0 0 68 48" fill="none" xmlns="http://www.w3.org/2000/svg">
<path d="M43.1626 13.5228H42.1024V29.6529H43.1626C47.4788 29.6529 50.735 26.2129 50.735 21.5497C50.735 16.8864 47.4788 13.5228 43.1626 13.5228ZM44.2227 27.5124V15.7397C46.7973 16.2749 48.6147 18.5683 48.6147 21.6261C48.6147 24.6839 46.7973 26.9773 44.2227 27.5124ZM43.4655 0.144742C43.1626 -0.00814984 42.784 -0.0845959 42.4053 0.144742L23.4744 10.6179H9.8441C4.24053 10.6179 0 15.1282 0 21.1674C0 27.2067 4.24053 31.717 9.8441 31.717H23.9287L42.4053 41.9608C42.5568 42.0372 42.7082 42.1136 42.9354 42.1136C43.0869 42.1136 43.314 42.0372 43.4655 41.9608C43.7684 41.8079 43.9955 41.4256 43.9955 41.0434V1.0621C43.9198 0.679866 43.7684 0.297635 43.4655 0.144742ZM2.04454 21.1674C2.04454 16.3513 5.37639 12.6819 9.8441 12.6819H22.8686V29.6529H9.8441C5.45212 29.5765 2.04454 25.9835 2.04454 21.1674ZM41.8753 39.2087L24.9131 29.8823V12.2997C24.9889 12.2232 25.0646 12.1468 25.0646 12.0703L41.8753 2.82036V39.2087ZM68 21.5497C68 20.9381 67.5457 20.4794 66.9399 20.4794H55.657C55.0512 20.4794 54.5969 20.9381 54.5969 21.5497C54.5969 22.1612 55.0512 22.6199 55.657 22.6199H66.9399C67.5457 22.6199 68 22.0848 68 21.5497ZM62.3964 37.8327C62.7751 37.374 62.6993 36.686 62.245 36.3802L53.6125 29.0414C53.1581 28.6591 52.4766 28.7356 52.1737 29.1943C51.7951 29.6529 51.8708 30.341 52.3252 30.6467L60.9577 37.9856C61.1849 38.1385 61.412 38.2149 61.6392 38.2149C61.8664 38.2149 62.1693 38.1385 62.3964 37.8327ZM53.3096 13.9815L61.9421 6.64266C62.3964 6.26043 62.4722 5.57242 62.0935 5.19019C61.7149 4.73151 61.0334 4.65506 60.6548 5.03729L52.0223 12.3761C51.5679 12.7583 51.4922 13.4464 51.8708 13.8286C52.098 14.0579 52.4009 14.2108 52.7038 14.2108C52.931 14.2873 53.1581 14.1344 53.3096 13.9815ZM17.5679 47.6178C18.3252 46.7769 19.3096 44.7893 18.1737 43.031C15.2962 38.5207 15.5234 31.4876 15.5234 31.4112C15.5234 30.7996 15.069 30.341 14.539 30.341C14.0089 30.341 13.4788 30.7232 13.4788 31.3347C13.4788 31.6405 13.1759 39.1323 16.4321 44.2541C16.8107 44.8657 16.5078 45.5537 16.2806 45.936H10.6013V31.5641C10.6013 30.9525 10.147 30.4938 9.5412 30.4938C8.93541 30.4938 8.48107 30.9525 8.48107 31.5641V46.9298C8.48107 47.5413 8.93541 48 9.5412 48H16.8107C17.0379 48 17.3408 47.9236 17.5679 47.6178Z" fill="#722439"/>
</svg>
