<svg width="173" height="122" viewBox="0 0 173 122" fill="none" xmlns="http://www.w3.org/2000/svg">
<path d="M1.62623 84.7423C1.74981 84.1153 1.88261 83.6813 2.00287 83.4158L2.15715 83.4912L2.62619 83.2023C5.46948 81.4506 9.74997 80.519 15.2971 80.1682C20.8181 79.819 27.4551 80.0508 34.9161 80.5216C38.9033 80.7732 43.1233 81.0931 47.5233 81.4266C59.5453 82.3379 72.9103 83.351 86.5375 83.351C106.191 83.351 127.762 85.3284 144.434 87.3089C152.766 88.2987 159.869 89.2886 164.887 90.0309C167.397 90.402 169.385 90.7112 170.745 90.9275C171.253 91.0083 171.673 91.0761 172 91.1294V91.143V91.1607V91.1786V91.1965V91.2147V91.233V91.2514V91.27V91.2888V91.3077V91.3267V91.3459V91.3652V91.3847V91.4043V91.4241V91.444V91.464V91.4842V91.5045V91.525V91.5456V91.5663V91.5872V91.6082V91.6293V91.6506V91.672V91.6936V91.7153V91.7371V91.759V91.7811V91.8033V91.8256V91.848V91.8706V91.8933V91.9161V91.9391V91.9622V91.9854V92.0087V92.0321V92.0557V92.0793V92.1031V92.127V92.1511V92.1752V92.1995V92.2238V92.2483V92.2729V92.2976V92.3224V92.3473V92.3724V92.3975V92.4228V92.4481V92.4736V92.4992V92.5248V92.5506V92.5765V92.6025V92.6286V92.6547V92.681V92.7074V92.7339V92.7605V92.7871V92.8139V92.8407V92.8677V92.8947V92.9219V92.9491V92.9764V93.0038V93.0313V93.0589V93.0866V93.1144V93.1422V93.1701V93.1982V93.2263V93.2544V93.2827V93.311V93.3395V93.368V93.3966V93.4252V93.4539V93.4828V93.5116V93.5406V93.5696V93.5988V93.6279V93.6572V93.6865V93.7159V93.7453V93.7749V93.8045V93.8341V93.8639V93.8936V93.9235V93.9534V93.9834V94.0134V94.0435V94.0737V94.1039V94.1342V94.1645V94.1949V94.2254V94.2559V94.2864V94.317V94.3477V94.3784V94.4092V94.44V94.4709V94.5018V94.5327V94.5637V94.5948V94.6259V94.657V94.6882V94.7195V94.7507V94.782V94.8134V94.8448V94.8762V94.9077V94.9392V94.9707V95.0023V95.0339V95.0656V95.0973V95.129V95.1607V95.1925V95.2243V95.2561V95.288V95.3199V95.3518V95.3838V95.4157V95.4477V95.4797V95.5118V95.5438V95.5759V95.608V95.6401V95.6723V95.7044V95.7366V95.7688V95.801V95.8332V95.8655V95.8977V95.93V95.9622V95.9945V96.0268V96.0591V96.0914V96.1237V96.1561V96.1884V96.2207V96.2531V96.2854V96.3178V96.3501V96.3824V96.4148V96.4471V96.4795V96.5118V96.5442V96.5765V96.6088V96.6411V96.6735V96.7058V96.7381V96.7704V96.8027V96.8349V96.8672V96.8994V96.9317V96.9639V96.9961V97.0283V97.0605V97.0926V97.1248V97.1569V97.189V97.2211V97.2532V97.2852V97.3172V97.3492V97.3812V97.4131V97.4451V97.477V97.5088V97.5407V97.5725V97.6043V97.636V97.6677V97.6994V97.7311V97.7627V97.7943V97.8258V97.8573V97.8888V97.9202V97.9516V97.983V98.0143V98.0456V98.0768V98.108V98.1392V98.1703V98.2014V98.2324V98.2633V98.2943V98.3251V98.356V98.3867V98.4174V98.4481V98.4787V98.5093V98.5398V98.5703V98.6007V98.631V98.6613V98.6915V98.7217V98.7518V98.7819V98.8118V98.8418V98.8716V98.9014V98.9312V98.9608V98.9904V99.02V99.0495V99.0789V99.1082V99.1374V99.1666V99.1958V99.2248V99.2538V99.2827V99.3115V99.3402V99.3689V99.3975V99.426V99.4545V99.4828V99.5111V99.5393V99.5674V99.5954V99.6234V99.6512V99.679V99.7067V99.7343V99.7618V99.7892V99.8166V99.8438V99.871V99.898V99.925V99.9519V99.9786V100.005V100.032V100.058V100.085V100.111V100.137V100.163V100.189V100.215V100.241V100.267V100.292V100.318V100.343V100.368V100.394V100.419V100.444V100.468V100.493V100.518V100.542V100.567V100.591V100.615V100.639V100.663V100.687V100.711V100.734V100.758V100.781V100.804V100.827V100.85V100.873V100.896V100.918V100.941V100.963V100.985V101.007V101.029V101.051V101.073V101.095V101.116V101.137V101.158V101.179V101.2V101.221V101.242V101.262V101.283V101.303V101.323V101.343V101.363V101.382V101.402V101.421V101.44V101.459V101.478V101.497V101.516V101.534V101.552V101.571V101.589V101.606V101.624V101.642V101.659V101.676V101.693V101.71V101.727V101.744V101.76V101.777V101.793V101.809V101.824V101.84V101.856V101.871V101.886V101.901V101.916V101.93V101.945V101.959V101.973V101.987V102.001V102.015V102.028V102.041V102.054V102.067V102.08V102.093V102.105V102.117V102.129V102.141V102.153V102.164V102.176C172 103.229 171.539 104.338 170.497 105.505C169.45 106.678 167.86 107.858 165.729 109.013C161.468 111.323 155.237 113.434 147.452 115.219C131.898 118.785 110.361 121 86.5375 121C62.7137 121 41.1766 118.785 25.6228 115.219C17.8378 113.434 11.6067 111.323 7.34622 109.013C5.21539 107.858 3.6248 106.678 2.5777 105.505C1.53604 104.338 1.07501 103.229 1.07501 102.176C1.07501 101.883 1.06608 101.382 1.05438 100.726C1.0152 98.5278 0.944941 94.5852 1.07449 90.8907C1.15869 88.4892 1.32603 86.2655 1.62623 84.7423ZM2.13544 83.1837C2.13679 83.1822 2.13749 83.1816 2.1375 83.1816C2.13751 83.1816 2.13683 83.1824 2.13544 83.1837Z" fill="#F2F2F2" stroke="#691C33" stroke-width="2"/>
<path d="M172 87C172 88.068 171.536 89.19 170.494 90.368C169.446 91.5522 167.854 92.7423 165.723 93.9074C161.461 96.2373 155.227 98.3671 147.439 100.168C131.88 103.766 110.334 106 86.5 106C62.6663 106 41.1205 103.766 25.5605 100.168C17.7725 98.3671 11.5392 96.2373 7.27726 93.9074C5.14579 92.7423 3.55428 91.5522 2.50622 90.368C1.4637 89.19 1 88.068 1 87C1 86.0756 1.00009 83.7349 1.08373 81.5581C1.12567 80.4667 1.18788 79.4379 1.27844 78.6568C1.32408 78.2631 1.37388 77.96 1.42426 77.7534C1.43362 77.715 1.44217 77.6834 1.44962 77.658C3.80787 75.7432 7.71551 74.1409 12.9891 72.8408C18.3333 71.5234 24.9621 70.5435 32.5485 69.8243C47.7198 68.3861 66.6126 68 86.5 68C106.68 68 125.872 68.0082 141.216 69.0923C148.888 69.6343 155.563 70.4433 160.899 71.6447C166.01 72.7955 169.759 74.2789 172 76.1247V76.1344V76.1476V76.161V76.1746V76.1883V76.2022V76.2163V76.2305V76.2449V76.2594V76.2741V76.289V76.304V76.3192V76.3345V76.35V76.3657V76.3815V76.3974V76.4135V76.4298V76.4462V76.4628V76.4795V76.4963V76.5133V76.5305V76.5478V76.5652V76.5828V76.6006V76.6184V76.6364V76.6546V76.6729V76.6914V76.7099V76.7287V76.7475V76.7665V76.7856V76.8049V76.8243V76.8439V76.8635V76.8833V76.9033V76.9233V76.9435V76.9638V76.9843V77.0049V77.0256V77.0464V77.0674V77.0885V77.1097V77.131V77.1524V77.174V77.1957V77.2175V77.2395V77.2615V77.2837V77.306V77.3284V77.3509V77.3735V77.3963V77.4191V77.4421V77.4652V77.4884V77.5117V77.5351V77.5586V77.5822V77.6059V77.6298V77.6537V77.6778V77.7019V77.7262V77.7505V77.775V77.7995V77.8242V77.849V77.8738V77.8988V77.9238V77.9489V77.9742V77.9995V78.0249V78.0504V78.0761V78.1018V78.1275V78.1534V78.1794V78.2054V78.2316V78.2578V78.2841V78.3105V78.337V78.3636V78.3902V78.4169V78.4437V78.4706V78.4976V78.5247V78.5518V78.579V78.6063V78.6336V78.661V78.6885V78.7161V78.7438V78.7715V78.7993V78.8271V78.855V78.883V78.9111V78.9392V78.9674V78.9957V79.024V79.0524V79.0808V79.1093V79.1379V79.1666V79.1952V79.224V79.2528V79.2817V79.3106V79.3396V79.3686V79.3977V79.4268V79.456V79.4853V79.5146V79.5439V79.5733V79.6028V79.6323V79.6618V79.6914V79.721V79.7507V79.7804V79.8102V79.84V79.8698V79.8997V79.9296V79.9596V79.9896V80.0197V80.0497V80.0799V80.11V80.1402V80.1704V80.2007V80.231V80.2613V80.2916V80.322V80.3524V80.3828V80.4133V80.4438V80.4743V80.5048V80.5354V80.566V80.5966V80.6272V80.6579V80.6886V80.7193V80.75V80.7807V80.8115V80.8422V80.873V80.9038V80.9346V80.9654V80.9963V81.0271V81.058V81.0888V81.1197V81.1506V81.1815V81.2124V81.2433V81.2742V81.3052V81.3361V81.367V81.3979V81.4289V81.4598V81.4907V81.5217V81.5526V81.5835V81.6144V81.6454V81.6763V81.7072V81.7381V81.769V81.7999V81.8308V81.8616V81.8925V81.9233V81.9542V81.985V82.0158V82.0466V82.0774V82.1082V82.1389V82.1697V82.2004V82.2311V82.2618V82.2924V82.3231V82.3537V82.3843V82.4148V82.4454V82.4759V82.5064V82.5369V82.5673V82.5977V82.6281V82.6585V82.6888V82.7191V82.7494V82.7796V82.8098V82.84V82.8701V82.9002V82.9302V82.9602V82.9902V83.0202V83.0501V83.0799V83.1097V83.1395V83.1692V83.1989V83.2286V83.2582V83.2877V83.3172V83.3467V83.3761V83.4055V83.4348V83.464V83.4932V83.5224V83.5515V83.5805V83.6095V83.6385V83.6674V83.6962V83.725V83.7537V83.7823V83.8109V83.8394V83.8679V83.8963V83.9246V83.9529V83.9811V84.0093V84.0374V84.0654V84.0933V84.1212V84.149V84.1767V84.2044V84.232V84.2595V84.287V84.3143V84.3416V84.3689V84.396V84.4231V84.4501V84.477V84.5038V84.5306V84.5572V84.5838V84.6103V84.6367V84.6631V84.6893V84.7155V84.7416V84.7676V84.7935V84.8193V84.845V84.8706V84.8962V84.9216V84.947V84.9722V84.9974V85.0225V85.0475V85.0723V85.0971V85.1218V85.1464V85.1709V85.1953V85.2195V85.2437V85.2678V85.2918V85.3156V85.3394V85.3631V85.3866V85.41V85.4334V85.4566V85.4797V85.5027V85.5256V85.5484V85.571V85.5936V85.616V85.6383V85.6605V85.6826V85.7046V85.7264V85.7482V85.7698V85.7913V85.8126V85.8339V85.855V85.876V85.8968V85.9176V85.9382V85.9587V85.979V85.9993V86.0194V86.0393V86.0592V86.0789V86.0985V86.1179V86.1372V86.1564V86.1754V86.1943V86.2131V86.2317V86.2502V86.2685V86.2867V86.3048V86.3227V86.3405V86.3581V86.3756V86.3929V86.4101V86.4272V86.4441V86.4608V86.4774V86.4939V86.5102V86.5263V86.5423V86.5582V86.5738V86.5894V86.6048V86.62V86.635V86.6499V86.6647V86.6793V86.6937V86.708V86.7221V86.736V86.7498V86.7634V86.7769V86.7901V86.8033V86.8162V86.829V86.8416V86.8541V86.8663V86.8784V86.8904V86.9021V86.9137V86.9251V86.9363V86.9474V86.9583V86.969V86.9795V86.9898V87ZM1.47679 77.5773C1.48262 77.5636 1.48284 77.5662 1.47575 77.5798C1.47612 77.5789 1.47647 77.5781 1.47679 77.5773Z" fill="#F2F2F2" stroke="#691C33" stroke-width="2"/>
<path d="M172 75C172 76.068 171.536 77.19 170.494 78.368C169.446 79.5522 167.854 80.7423 165.723 81.9074C161.461 84.2373 155.227 86.3671 147.439 88.1678C131.88 91.7655 110.334 94 86.5 94C62.6663 94 41.1205 91.7655 25.5605 88.1678C17.7726 86.3671 11.5392 84.2373 7.27726 81.9074C5.14579 80.7423 3.55428 79.5522 2.50622 78.368C1.4637 77.19 1 76.068 1 75C1 73.9406 1.00029 71.3846 1.16657 68.9772C1.24997 67.7697 1.37311 66.6322 1.55049 65.7519C1.63953 65.31 1.73605 64.9649 1.8339 64.7203C1.90695 64.5377 1.95838 64.4685 1.96611 64.4563C4.5751 62.57 8.69758 61.0602 14.126 59.8816C19.5493 58.7041 26.1743 57.8777 33.6873 57.301C48.7136 56.1475 67.1853 56 86.5 56C107.177 56 126.624 56.2588 141.962 57.6334C149.632 58.3209 156.24 59.2846 161.444 60.6231C166.449 61.9103 170.005 63.5084 172 65.4137V65.4142V65.4259V65.4378V65.4498V65.4619V65.4742V65.4867V65.4993V65.512V65.5249V65.5379V65.5511V65.5644V65.5778V65.5914V65.6051V65.6189V65.6329V65.6471V65.6613V65.6757V65.6902V65.7049V65.7197V65.7346V65.7497V65.7649V65.7802V65.7956V65.8112V65.8269V65.8427V65.8587V65.8747V65.8909V65.9073V65.9237V65.9403V65.957V65.9738V65.9907V66.0078V66.025V66.0423V66.0597V66.0772V66.0948V66.1126V66.1305V66.1485V66.1666V66.1848V66.2031V66.2216V66.2401V66.2588V66.2775V66.2964V66.3154V66.3345V66.3537V66.373V66.3924V66.4119V66.4316V66.4513V66.4711V66.491V66.5111V66.5312V66.5514V66.5717V66.5922V66.6127V66.6333V66.654V66.6748V66.6958V66.7168V66.7378V66.759V66.7803V66.8017V66.8231V66.8447V66.8663V66.8881V66.9099V66.9318V66.9538V66.9759V66.998V67.0203V67.0426V67.065V67.0875V67.1101V67.1327V67.1555V67.1783V67.2012V67.2242V67.2472V67.2704V67.2936V67.3168V67.3402V67.3636V67.3871V67.4107V67.4343V67.4581V67.4818V67.5057V67.5296V67.5536V67.5777V67.6018V67.626V67.6503V67.6746V67.699V67.7235V67.748V67.7726V67.7972V67.8219V67.8467V67.8715V67.8964V67.9213V67.9463V67.9714V67.9965V68.0216V68.0468V68.0721V68.0974V68.1228V68.1482V68.1737V68.1993V68.2248V68.2505V68.2761V68.3019V68.3276V68.3535V68.3793V68.4052V68.4312V68.4572V68.4832V68.5093V68.5354V68.5616V68.5878V68.614V68.6403V68.6666V68.693V68.7194V68.7458V68.7723V68.7988V68.8253V68.8519V68.8785V68.9051V68.9317V68.9584V68.9851V69.0119V69.0387V69.0655V69.0923V69.1192V69.146V69.1729V69.1999V69.2268V69.2538V69.2808V69.3078V69.3348V69.3619V69.389V69.4161V69.4432V69.4703V69.4975V69.5246V69.5518V69.579V69.6062V69.6334V69.6607V69.6879V69.7151V69.7424V69.7697V69.797V69.8242V69.8515V69.8788V69.9061V69.9335V69.9608V69.9881V70.0154V70.0428V70.0701V70.0974V70.1247V70.1521V70.1794V70.2067V70.234V70.2614V70.2887V70.316V70.3433V70.3706V70.3979V70.4252V70.4525V70.4797V70.507V70.5342V70.5615V70.5887V70.6159V70.6431V70.6703V70.6975V70.7247V70.7518V70.7789V70.806V70.8331V70.8602V70.8873V70.9143V70.9413V70.9683V70.9953V71.0222V71.0492V71.0761V71.1029V71.1298V71.1566V71.1834V71.2102V71.2369V71.2637V71.2903V71.317V71.3436V71.3702V71.3968V71.4233V71.4498V71.4763V71.5027V71.5291V71.5554V71.5817V71.608V71.6343V71.6604V71.6866V71.7127V71.7388V71.7648V71.7908V71.8168V71.8427V71.8685V71.8944V71.9201V71.9458V71.9715V71.9971V72.0227V72.0482V72.0737V72.0991V72.1245V72.1498V72.1751V72.2003V72.2255V72.2506V72.2756V72.3006V72.3255V72.3504V72.3752V72.4V72.4247V72.4493V72.4739V72.4984V72.5229V72.5472V72.5716V72.5958V72.62V72.6441V72.6682V72.6922V72.7161V72.74V72.7637V72.7875V72.8111V72.8347V72.8582V72.8816V72.9049V72.9282V72.9514V72.9745V72.9976V73.0205V73.0434V73.0662V73.089V73.1116V73.1342V73.1567V73.1791V73.2014V73.2236V73.2458V73.2679V73.2898V73.3117V73.3335V73.3553V73.3769V73.3984V73.4199V73.4412V73.4625V73.4837V73.5048V73.5258V73.5467V73.5675V73.5882V73.6088V73.6293V73.6497V73.67V73.6903V73.7104V73.7304V73.7503V73.7701V73.7899V73.8095V73.829V73.8484V73.8677V73.8869V73.9059V73.9249V73.9438V73.9625V73.9812V73.9997V74.0182V74.0365V74.0547V74.0728V74.0908V74.1086V74.1264V74.144V74.1615V74.1789V74.1962V74.2134V74.2304V74.2473V74.2641V74.2808V74.2974V74.3138V74.3301V74.3463V74.3624V74.3783V74.3941V74.4098V74.4254V74.4408V74.4561V74.4713V74.4863V74.5013V74.516V74.5307V74.5452V74.5596V74.5738V74.5879V74.6019V74.6157V74.6294V74.643V74.6564V74.6697V74.6829V74.6959V74.7087V74.7214V74.734V74.7465V74.7587V74.7709V74.7829V74.7947V74.8064V74.818V74.8294V74.8407V74.8518V74.8627V74.8736V74.8842V74.8947V74.9051V74.9153V74.9253V74.9352V74.9449V74.9545V74.9639V74.9732V74.9823V74.9912V75Z" fill="#F2F2F2" stroke="#691C33" stroke-width="2"/>
<path d="M172 61.5358C172 63.7625 170.06 66.1989 165.718 68.6288C161.46 71.012 155.232 73.1908 147.45 75.0331C131.902 78.7138 110.371 81 86.554 81C62.7366 81 41.2061 78.7138 25.6579 75.0331C17.8758 73.1908 11.6479 71.012 7.3898 68.6288C3.04829 66.1989 1.10805 63.7625 1.10805 61.5358C1.10805 61.1039 1.08975 60.5179 1.06817 59.8271C1.02408 58.415 0.9663 56.565 1.02318 54.6979C1.06478 53.3321 1.16815 52.0446 1.373 51.0353C1.4755 50.5303 1.59669 50.1297 1.7296 49.8369C1.86793 49.5322 1.98069 49.4292 2.01527 49.406C4.81339 47.5319 9.10387 46.0999 14.6573 45.0316C20.1893 43.9673 26.8777 43.2811 34.4003 42.8411C47.9296 42.0498 64.0623 42.0594 80.8691 42.0694C82.7565 42.0705 84.6524 42.0716 86.554 42.0716C91.3282 42.0716 96.0457 42.053 100.669 42.0348C115.595 41.9758 129.542 41.9208 141.256 42.5084C148.925 42.8931 155.594 43.5517 160.923 44.654C166.035 45.7113 169.771 47.1501 172 49.0264V49.0313V49.0455V49.0599V49.0745V49.0893V49.1043V49.1195V49.1349V49.1505V49.1663V49.1823V49.1984V49.2148V49.2313V49.2481V49.265V49.2821V49.2993V49.3168V49.3345V49.3523V49.3703V49.3885V49.4069V49.4254V49.4441V49.463V49.4821V49.5014V49.5208V49.5404V49.5601V49.5801V49.6002V49.6205V49.6409V49.6615V49.6823V49.7032V49.7243V49.7456V49.767V49.7886V49.8104V49.8323V49.8544V49.8766V49.899V49.9215V49.9442V49.9671V49.9901V50.0132V50.0365V50.06V50.0836V50.1074V50.1313V50.1553V50.1795V50.2038V50.2283V50.2529V50.2777V50.3026V50.3277V50.3529V50.3782V50.4036V50.4292V50.455V50.4808V50.5068V50.533V50.5593V50.5857V50.6122V50.6388V50.6656V50.6925V50.7196V50.7467V50.774V50.8014V50.829V50.8566V50.8844V50.9123V50.9403V50.9685V50.9967V51.0251V51.0536V51.0822V51.1109V51.1397V51.1686V51.1977V51.2268V51.2561V51.2854V51.3149V51.3445V51.3742V51.404V51.4339V51.4639V51.494V51.5242V51.5545V51.5849V51.6154V51.646V51.6767V51.7074V51.7383V51.7693V51.8003V51.8315V51.8627V51.8941V51.9255V51.957V51.9886V52.0203V52.052V52.0839V52.1158V52.1478V52.1799V52.2121V52.2444V52.2767V52.3091V52.3416V52.3742V52.4068V52.4395V52.4723V52.5051V52.5381V52.5711V52.6041V52.6373V52.6705V52.7037V52.7371V52.7705V52.8039V52.8374V52.871V52.9047V52.9384V52.9721V53.006V53.0398V53.0738V53.1078V53.1418V53.1759V53.2101V53.2443V53.2785V53.3128V53.3472V53.3816V53.416V53.4505V53.485V53.5196V53.5542V53.5889V53.6236V53.6583V53.6931V53.728V53.7628V53.7977V53.8327V53.8676V53.9026V53.9377V53.9727V54.0078V54.043V54.0781V54.1133V54.1485V54.1838V54.2191V54.2543V54.2897V54.325V54.3604V54.3958V54.4312V54.4666V54.502V54.5375V54.573V54.6084V54.6439V54.6795V54.715V54.7505V54.7861V54.8217V54.8572V54.8928V54.9284V54.964V54.9996V55.0352V55.0708V55.1064V55.142V55.1776V55.2133V55.2489V55.2845V55.3201V55.3557V55.3913V55.4269V55.4625V55.498V55.5336V55.5692V55.6047V55.6403V55.6758V55.7113V55.7468V55.7823V55.8178V55.8532V55.8886V55.9241V55.9595V55.9948V56.0302V56.0655V56.1008V56.1361V56.1714V56.2066V56.2418V56.277V56.3121V56.3473V56.3824V56.4174V56.4524V56.4874V56.5224V56.5573V56.5922V56.627V56.6619V56.6966V56.7314V56.7661V56.8007V56.8353V56.8699V56.9044V56.9389V56.9733V57.0077V57.042V57.0763V57.1105V57.1447V57.1788V57.2129V57.2469V57.2809V57.3148V57.3487V57.3825V57.4162V57.4499V57.4835V57.5171V57.5506V57.584V57.6174V57.6507V57.684V57.7171V57.7502V57.7833V57.8162V57.8491V57.882V57.9147V57.9474V57.98V58.0126V58.045V58.0774V58.1097V58.1419V58.1741V58.2061V58.2381V58.27V58.3018V58.3336V58.3652V58.3968V58.4283V58.4597V58.491V58.5222V58.5533V58.5843V58.6153V58.6461V58.6768V58.7075V58.7381V58.7685V58.7989V58.8291V58.8593V58.8894V58.9193V58.9492V58.9789V59.0086V59.0381V59.0676V59.0969V59.1261V59.1552V59.1842V59.2131V59.2419V59.2706V59.2991V59.3276V59.3559V59.3841V59.4122V59.4402V59.468V59.4958V59.5234V59.5509V59.5782V59.6055V59.6326V59.6596V59.6864V59.7132V59.7398V59.7663V59.7926V59.8188V59.8449V59.8709V59.8967V59.9224V59.9479V59.9734V59.9986V60.0238V60.0488V60.0736V60.0983V60.1229V60.1473V60.1716V60.1958V60.2198V60.2436V60.2673V60.2909V60.3143V60.3375V60.3606V60.3836V60.4064V60.429V60.4515V60.4738V60.496V60.518V60.5398V60.5615V60.5831V60.6044V60.6256V60.6467V60.6676V60.6883V60.7088V60.7292V60.7494V60.7695V60.7894V60.8091V60.8286V60.848V60.8671V60.8862V60.905V60.9236V60.9421V60.9604V60.9786V60.9965V61.0143V61.0318V61.0492V61.0665V61.0835V61.1003V61.117V61.1335V61.1497V61.1658V61.1817V61.1975V61.213V61.2283V61.2434V61.2584V61.2731V61.2877V61.302V61.3161V61.3301V61.3438V61.3574V61.3707V61.3839V61.3968V61.4095V61.4221V61.4344V61.4465V61.4584V61.4701V61.4816V61.4929V61.5039V61.5148V61.5254V61.5358Z" fill="#F2F2F2" stroke="#691C33" stroke-width="2"/>
<path d="M172 47C172 48.068 171.536 49.19 170.494 50.368C169.446 51.5522 167.854 52.7423 165.723 53.9074C161.461 56.2373 155.227 58.3671 147.439 60.1678C131.88 63.7655 110.334 66 86.5 66C62.6663 66 41.1205 63.7655 25.5605 60.1678C17.7725 58.3671 11.5392 56.2373 7.27726 53.9074C5.14579 52.7423 3.55428 51.5522 2.50622 50.368C1.4637 49.19 1 48.068 1 47C1 45.932 1.4637 44.81 2.50622 43.632C3.55428 42.4478 5.14579 41.2577 7.27726 40.0926C11.5392 37.7627 17.7725 35.6329 25.5605 33.8322C41.1205 30.2345 62.6663 28 86.5 28C110.334 28 131.88 30.2345 147.439 33.8322C155.227 35.6329 161.461 37.7627 165.723 40.0926C167.854 41.2577 169.446 42.4478 170.494 43.632C171.536 44.81 172 45.932 172 47Z" fill="#F2F2F2" stroke="#691C33" stroke-width="2"/>
<path d="M139 53C139 54.3745 137.896 55.9564 135.198 57.5947C132.56 59.1969 128.676 60.6754 123.789 61.9309C114.028 64.4381 100.491 66 85.5 66C70.509 66 56.9716 64.4381 47.2115 61.9309C42.3239 60.6754 38.44 59.1969 35.802 57.5947C33.1044 55.9564 32 54.3745 32 53C32 51.6255 33.1044 50.0436 35.802 48.4053C38.44 46.8031 42.3239 45.3246 47.2115 44.0691C56.9716 41.5619 70.509 40 85.5 40C100.491 40 114.028 41.5619 123.789 44.0691C128.676 45.3246 132.56 46.8031 135.198 48.4053C137.896 50.0436 139 51.6255 139 53Z" stroke="#691C33" stroke-width="2"/>
<path d="M66 22V45M100 22V45" stroke="#691C33" stroke-width="2" stroke-linecap="round"/>
<rect x="57" y="1" width="51" height="28" rx="1" fill="#F2F2F2" stroke="#691C33" stroke-width="2"/>
<rect x="67" y="90" width="43" height="30" rx="1" fill="#F2F2F2" stroke="#691C33" stroke-width="2"/>
<path d="M154.128 6.86389C146.352 6.86389 140.048 13.126 140.048 20.851C140.048 24.8029 143.924 31.883 143.924 31.883L153.609 48.3121L163.713 32.0748C163.713 32.0748 168.202 25.3196 168.202 20.851C168.203 13.126 161.9 6.86389 154.128 6.86389ZM154.062 28.5548C149.609 28.5548 146.001 24.9477 146.001 20.4897C146.001 16.0376 149.607 12.4328 154.062 12.4328C158.513 12.4328 162.123 16.0376 162.123 20.4897C162.123 24.9477 158.513 28.5548 154.062 28.5548Z" fill="#691C33"/>
</svg>
