<svg width="63" height="50" viewBox="0 0 63 50" fill="none" xmlns="http://www.w3.org/2000/svg">
<path d="M62.3152 30.6674V27.388C62.3152 27.1251 62.2269 26.8944 62.0615 26.729C61.8961 26.5636 61.6654 26.4753 61.4025 26.4753H60.1035V11.3722C60.1035 5.56937 55.3841 0.85 49.5813 0.85H46.607C40.8042 0.85 36.0848 5.56937 36.0848 11.3722V26.4753H34.7858C34.5229 26.4753 34.2922 26.5636 34.1268 26.729C33.9614 26.8944 33.8731 27.1251 33.8731 27.388V29.4497H29.3684V27.388C29.3684 27.1251 29.2801 26.8944 29.1147 26.729C28.9493 26.5636 28.7186 26.4753 28.4557 26.4753H27.1566V11.3722C27.1566 5.56937 22.4373 0.85 16.6345 0.85H13.6601C7.85735 0.85 3.13797 5.56937 3.13797 11.3722V26.4753H1.83892C1.57604 26.4753 1.34531 26.5636 1.17993 26.729C1.01455 26.8944 0.926266 27.1251 0.926266 27.388V30.6674C0.926266 32.6569 2.51874 34.2494 4.50823 34.2494H14.281C14.2728 34.3108 14.2728 34.3683 14.2728 34.402V34.4044V47.3696C14.2728 47.3765 14.2728 47.3833 14.2728 47.3902C14.2726 47.435 14.2725 47.48 14.277 47.5247H1.76266C1.49977 47.5247 1.26905 47.613 1.10367 47.7784C0.938283 47.9437 0.85 48.1745 0.85 48.4373C0.85 48.7002 0.938283 48.931 1.10367 49.0963C1.26905 49.2617 1.49977 49.35 1.76266 49.35H61.3263C61.5891 49.35 61.8199 49.2617 61.9853 49.0963C62.1506 48.931 62.2389 48.7002 62.2389 48.4373C62.2389 48.1745 62.1506 47.9437 61.9853 47.7784C61.8199 47.613 61.5891 47.5247 61.3263 47.5247H48.9604C48.9689 47.4617 48.9687 47.403 48.9687 47.3696V34.4044C48.9687 34.3976 48.9687 34.3907 48.9687 34.3839C48.9688 34.3391 48.9689 34.294 48.9645 34.2494H58.7332C60.7227 34.2494 62.3152 32.6569 62.3152 30.6674ZM37.8339 11.3722C37.8339 6.57398 41.7325 2.67532 46.5307 2.67532H49.5051C54.3032 2.67532 58.2019 6.57398 58.2019 11.3722V26.4753H37.8339V11.3722ZM35.6222 28.3006H60.4136V30.6674C60.4136 31.6523 59.6418 32.4241 58.657 32.4241H37.3788C36.3939 32.4241 35.6222 31.6523 35.6222 30.6674V28.3006ZM4.88703 11.3722C4.88703 6.57398 8.78569 2.67532 13.5839 2.67532H16.5582C21.3564 2.67532 25.2551 6.57398 25.2551 11.3722V26.4753H4.88703V11.3722ZM2.67532 30.6674V28.3006H27.4668V30.6674C27.4668 31.6523 26.695 32.4241 25.7101 32.4241H4.43196C3.44708 32.4241 2.67532 31.6523 2.67532 30.6674ZM37.3788 34.3256H47.1516C47.1431 34.3886 47.1434 34.4473 47.1434 34.4807V47.4459V47.4483C47.1434 47.482 47.1433 47.5395 47.1516 47.6009H16.0136C16.0218 47.5395 16.0218 47.4821 16.0218 47.4483V47.4459V34.4807C16.0218 34.4739 16.0219 34.467 16.0219 34.4601C16.022 34.4153 16.0221 34.3703 16.0176 34.3256H25.7864C27.5743 34.3256 28.9809 33.0359 29.2707 31.3513H33.8946C34.1883 33.0378 35.6672 34.3256 37.3788 34.3256Z" fill="#722439" stroke="#722439" stroke-width="0.3"/>
</svg>
